{
  "asset": {
    "generator": "glTF-Transform v0.9.6",
    "version": "2.0"
  },
  "accessors": [
    {
      "type": "VEC3",
      "componentType": 5126,
      "count": 3709,
      "max": [
        2.878230094909668,
        -0.1096939966082573,
        0.2897930145263672
      ],
      "min": [
        2.5928099155426025,
        -0.4178510010242462,
        0.10346899926662445
      ],
      "normalized": false,
      "bufferView": 0,
      "byteOffset": 0
    },
    {
      "type": "VEC2",
      "componentType": 5126,
      "count": 3709,
      "max": [
        0.9999690055847168,
        0.9670767784118652
      ],
      "min": [
        0.005355179775506258,
        0.07521897554397583
      ],
      "normalized": false,
      "bufferView": 0,
      "byteOffset": 12
    },
    {
      "type": "SCALAR",
      "componentType": 5123,
      "count": 9000,
      "max": [
        3708
      ],
      "min": [
        0
      ],
      "normalized": false,
      "bufferView": 1,
      "byteOffset": 0
    }
  ],
  "bufferViews": [
    {
      "buffer": 0,
      "byteOffset": 0,
      "byteLength": 74180,
      "byteStride": 20,
      "target": 34962
    },
    {
      "buffer": 0,
      "byteOffset": 74180,
      "byteLength": 18000,
      "target": 34963
    }
  ],
  "samplers": [
    {
      "wrapS": 10497,
      "wrapT": 10497
    }
  ],
  "textures": [
    {
      "source": 0,
      "sampler": 0
    }
  ],
  "images": [
    {
      "mimeType": "image/jpeg",
      "uri": "Textures/M2020_Rover_Texture.jpg"
    }
  ],
  "buffers": [
    {
      "uri": "Arm_LINK_5.bin",
      "byteLength": 92180
    }
  ],
  "materials": [
    {
      "alphaMode": "OPAQUE",
      "doubleSided": false,
      "pbrMetallicRoughness": {
        "baseColorFactor": [
          1,
          1,
          1,
          1
        ],
        "roughnessFactor": 1,
        "metallicFactor": 0,
        "baseColorTexture": {
          "index": 0,
          "texCoord": 0
        }
      },
      "emissiveFactor": [
        0,
        0,
        0
      ]
    }
  ],
  "meshes": [
    {
      "primitives": [
        {
          "attributes": {
            "POSITION": 0,
            "TEXCOORD_0": 1
          },
          "mode": 4,
          "material": 0,
          "indices": 2
        }
      ]
    }
  ],
  "nodes": [
    {
      "mesh": 0
    }
  ],
  "scenes": [
    {
      "nodes": [
        0
      ]
    }
  ]
}