{
  "asset": {
    "generator": "glTF-Transform v0.9.6",
    "version": "2.0"
  },
  "accessors": [
    {
      "type": "VEC3",
      "componentType": 5126,
      "count": 340,
      "max": [
        0.26655998826026917,
        0.028721999377012253,
        0.028605200350284576
      ],
      "min": [
        0.15583999454975128,
        -0.02870899997651577,
        -0.028336599469184875
      ],
      "normalized": false,
      "bufferView": 0,
      "byteOffset": 0
    },
    {
      "type": "VEC2",
      "componentType": 5126,
      "count": 340,
      "max": [
        0.34000301361083984,
        0.003998994827270508
      ],
      "min": [
        0.33200299739837646,
        0.003998994827270508
      ],
      "normalized": false,
      "bufferView": 0,
      "byteOffset": 12
    },
    {
      "type": "SCALAR",
      "componentType": 5123,
      "count": 1740,
      "max": [
        339
      ],
      "min": [
        0
      ],
      "normalized": false,
      "bufferView": 1,
      "byteOffset": 0
    }
  ],
  "bufferViews": [
    {
      "buffer": 0,
      "byteOffset": 0,
      "byteLength": 6800,
      "byteStride": 20,
      "target": 34962
    },
    {
      "buffer": 0,
      "byteOffset": 6800,
      "byteLength": 3480,
      "target": 34963
    }
  ],
  "samplers": [
    {
      "wrapS": 10497,
      "wrapT": 10497
    }
  ],
  "textures": [
    {
      "source": 0,
      "sampler": 0
    }
  ],
  "images": [
    {
      "mimeType": "image/jpeg",
      "uri": "Textures/M2020_Rover_Texture.jpg"
    }
  ],
  "buffers": [
    {
      "uri": "LaunchBitInTurretAtZeroFeed.bin",
      "byteLength": 10280
    }
  ],
  "materials": [
    {
      "alphaMode": "OPAQUE",
      "doubleSided": false,
      "pbrMetallicRoughness": {
        "baseColorFactor": [
          1,
          1,
          1,
          1
        ],
        "roughnessFactor": 1,
        "metallicFactor": 0,
        "baseColorTexture": {
          "index": 0,
          "texCoord": 0
        }
      },
      "emissiveFactor": [
        0,
        0,
        0
      ]
    }
  ],
  "meshes": [
    {
      "primitives": [
        {
          "attributes": {
            "POSITION": 0,
            "TEXCOORD_0": 1
          },
          "mode": 4,
          "material": 0,
          "indices": 2
        }
      ]
    }
  ],
  "nodes": [
    {
      "mesh": 0
    }
  ],
  "scenes": [
    {
      "nodes": [
        0
      ]
    }
  ]
}