<svg width="80" height="23" viewBox="0 0 80 23" fill="none" xmlns="http://www.w3.org/2000/svg">
<path d="M67.4885 22.6113H63.6836V0H72.6303C74.9155 0 76.6523 0.604695 77.8406 1.81408C79.0518 3.02347 79.6574 4.68638 79.6574 6.80282C79.6574 8.53052 79.2118 9.95587 78.3205 11.0789C77.4293 12.2019 76.1495 12.893 74.4813 13.1521L80.0002 22.6113H75.7496L70.6764 13.4761H67.4885V22.6113ZM72.0818 10.5606C74.4585 10.5606 75.6468 9.53474 75.6468 7.4831V6.09014C75.6468 4.0385 74.4585 3.01268 72.0818 3.01268H67.4885V10.5606H72.0818Z" fill="#DCDEE5"/>
<path d="M43.1992 22.6113V0H58.1789V3.04507H47.0384V9.62113H57.7676V12.6662H47.0384V19.5662H58.1789V22.6113H43.1992Z" fill="#DCDEE5"/>
<path d="M25.8997 0V13.8972C25.8997 14.8258 25.9226 15.6681 25.9683 16.4239C26.0369 17.1798 26.2082 17.8277 26.4825 18.3676C26.7567 18.8859 27.168 19.2854 27.7165 19.5662C28.265 19.8469 29.0191 19.9873 29.9789 19.9873C30.9387 19.9873 31.6928 19.8469 32.2413 19.5662C32.7897 19.2854 33.2011 18.8859 33.4753 18.3676C33.7495 17.8277 33.9095 17.1798 33.9552 16.4239C34.0237 15.6681 34.058 14.8258 34.058 13.8972V0H37.8972V13.2493C37.8972 14.869 37.7944 16.2944 37.5887 17.5254C37.4059 18.7347 37.0288 19.7498 36.4575 20.5704C35.8862 21.3695 35.0749 21.9742 34.0237 22.3845C32.9954 22.7948 31.6471 23 29.9789 23C28.3107 23 26.9509 22.7948 25.8997 22.3845C24.8714 21.9742 24.0716 21.3695 23.5002 20.5704C22.9289 19.7498 22.5404 18.7347 22.3348 17.5254C22.152 16.2944 22.0605 14.869 22.0605 13.2493V0H25.8997Z" fill="#DCDEE5"/>
<path d="M6.75286 22.6113L0 0H4.1477L7.30132 11.4028L9.39231 19.0803H9.59798L11.689 11.4028L14.8769 0H18.8532L12.1003 22.6113H6.75286Z" fill="#DCDEE5"/>
</svg>
