<svg width="392" height="215" viewBox="0 0 392 215" fill="none" xmlns="http://www.w3.org/2000/svg">
<rect y="55" width="120" height="160" rx="12" fill="#D0E7FF"/>
<path d="M37.6428 88.384C37.6428 87.8133 37.5308 87.3627 37.3068 87.032C37.0828 86.696 36.7761 86.456 36.3868 86.312C35.9974 86.1627 35.5521 86.088 35.0508 86.088H33.4588V90.792H34.9948C35.5121 90.792 35.9681 90.7227 36.3628 90.584C36.7574 90.44 37.0694 90.1947 37.2988 89.848C37.5281 89.496 37.6428 89.008 37.6428 88.384ZM39.1308 88.368C39.1308 89.2267 38.9468 89.9147 38.5788 90.432C38.2161 90.9493 37.7148 91.3253 37.0748 91.56C36.4348 91.7947 35.6988 91.912 34.8668 91.912H33.4588V96H32.0668V84.984H34.8828C36.1948 84.984 37.2294 85.2613 37.9868 85.816C38.7494 86.3653 39.1308 87.216 39.1308 88.368ZM48.4285 87.576L45.4685 96.056C45.2712 96.6267 45.0205 97.1493 44.7165 97.624C44.4178 98.0987 44.0258 98.4907 43.5405 98.8C43.0605 99.1147 42.4498 99.3093 41.7085 99.384L41.5005 98.312C42.0818 98.216 42.5405 98.0693 42.8765 97.872C43.2125 97.6747 43.4765 97.4213 43.6685 97.112C43.8658 96.8027 44.0392 96.432 44.1885 96H43.7405L40.7965 87.576H42.2365L44.6525 94.976L47.0365 87.576H48.4285ZM57.7023 95.576C57.4143 95.768 57.0649 95.9173 56.6543 96.024C56.2436 96.1307 55.8409 96.184 55.4463 96.184C54.5396 96.184 53.8409 95.9467 53.3503 95.472C52.8596 94.9973 52.6143 94.3867 52.6143 93.64V88.616H50.6783V87.576H52.6143V85.664L53.9583 85.504V87.576H56.8703L56.7103 88.616H53.9583V93.624C53.9583 94.0933 54.0809 94.4507 54.3263 94.696C54.5769 94.9413 54.9903 95.064 55.5663 95.064C55.8809 95.064 56.1716 95.0267 56.4383 94.952C56.7049 94.8773 56.9529 94.7813 57.1823 94.664L57.7023 95.576ZM61.952 84.056V88.728C62.2827 88.2853 62.688 87.9547 63.168 87.736C63.6533 87.512 64.144 87.4 64.64 87.4C65.4613 87.4 66.0613 87.6187 66.44 88.056C66.8187 88.4933 67.008 89.1013 67.008 89.88V96H65.664V89.912C65.664 89.4053 65.5467 89.0373 65.312 88.808C65.0773 88.5733 64.7093 88.456 64.208 88.456C63.888 88.456 63.584 88.528 63.296 88.672C63.008 88.816 62.7493 88.9947 62.52 89.208C62.2907 89.4213 62.1013 89.64 61.952 89.864V96H60.608V84.2L61.952 84.056ZM73.4098 87.4C74.2044 87.4 74.8684 87.5813 75.4018 87.944C75.9404 88.3013 76.3431 88.808 76.6098 89.464C76.8818 90.12 77.0178 90.8933 77.0178 91.784C77.0178 92.6427 76.8791 93.4027 76.6018 94.064C76.3244 94.7253 75.9164 95.2453 75.3778 95.624C74.8444 95.9973 74.1831 96.184 73.3938 96.184C72.6044 96.184 71.9404 96.0027 71.4018 95.64C70.8631 95.2773 70.4551 94.768 70.1778 94.112C69.9058 93.4507 69.7697 92.68 69.7697 91.8C69.7697 90.9307 69.9084 90.1653 70.1858 89.504C70.4631 88.8427 70.8711 88.328 71.4098 87.96C71.9538 87.5867 72.6204 87.4 73.4098 87.4ZM73.4098 88.496C72.6844 88.496 72.1351 88.7653 71.7618 89.304C71.3938 89.8373 71.2098 90.6693 71.2098 91.8C71.2098 92.9093 71.3911 93.7333 71.7538 94.272C72.1218 94.8107 72.6684 95.08 73.3938 95.08C74.1191 95.08 74.6631 94.8107 75.0258 94.272C75.3938 93.7333 75.5778 92.904 75.5778 91.784C75.5778 90.664 75.3964 89.8373 75.0338 89.304C74.6711 88.7653 74.1298 88.496 73.4098 88.496ZM79.7955 96V87.576H80.9395L81.0435 88.744C81.3848 88.312 81.8115 87.9813 82.3235 87.752C82.8408 87.5173 83.3422 87.4 83.8275 87.4C84.6542 87.4 85.2542 87.6187 85.6275 88.056C86.0062 88.4933 86.1955 89.1013 86.1955 89.88V96H84.8515V90.872C84.8515 90.296 84.8195 89.832 84.7555 89.48C84.6915 89.1227 84.5582 88.864 84.3555 88.704C84.1528 88.5387 83.8382 88.456 83.4115 88.456C83.0808 88.456 82.7688 88.528 82.4755 88.672C82.1875 88.816 81.9288 88.9973 81.6995 89.216C81.4755 89.4293 81.2888 89.6453 81.1395 89.864V96H79.7955ZM38.8028 113.952C38.8028 114.581 38.6454 115.141 38.3308 115.632C38.0161 116.117 37.5601 116.499 36.9628 116.776C36.3654 117.048 35.6374 117.184 34.7788 117.184C33.9734 117.184 33.2428 117.061 32.5868 116.816C31.9361 116.571 31.3788 116.224 30.9148 115.776L31.7388 114.848C32.1228 115.205 32.5628 115.491 33.0588 115.704C33.5548 115.912 34.1361 116.016 34.8028 116.016C35.2508 116.016 35.6694 115.944 36.0588 115.8C36.4481 115.651 36.7628 115.427 37.0028 115.128C37.2428 114.824 37.3628 114.44 37.3628 113.976C37.3628 113.619 37.2934 113.315 37.1548 113.064C37.0161 112.813 36.7708 112.592 36.4188 112.4C36.0668 112.203 35.5761 112.011 34.9468 111.824C34.2214 111.611 33.5921 111.371 33.0588 111.104C32.5308 110.832 32.1201 110.499 31.8268 110.104C31.5388 109.709 31.3947 109.221 31.3947 108.64C31.3947 108.091 31.5468 107.603 31.8508 107.176C32.1548 106.749 32.5734 106.416 33.1068 106.176C33.6454 105.931 34.2641 105.808 34.9628 105.808C35.7254 105.808 36.3868 105.917 36.9468 106.136C37.5121 106.349 38.0241 106.659 38.4827 107.064L37.6668 107.968C37.2721 107.616 36.8481 107.363 36.3948 107.208C35.9414 107.048 35.4801 106.968 35.0108 106.968C34.6108 106.968 34.2428 107.029 33.9068 107.152C33.5761 107.269 33.3094 107.448 33.1068 107.688C32.9094 107.923 32.8108 108.224 32.8108 108.592C32.8108 108.907 32.8961 109.179 33.0668 109.408C33.2374 109.637 33.5254 109.848 33.9308 110.04C34.3361 110.227 34.8881 110.424 35.5868 110.632C36.1574 110.797 36.6854 111.005 37.1708 111.256C37.6614 111.501 38.0561 111.837 38.3548 112.264C38.6534 112.685 38.8028 113.248 38.8028 113.952ZM42.4765 113.264C42.5032 113.915 42.6285 114.448 42.8525 114.864C43.0765 115.275 43.3725 115.579 43.7405 115.776C44.1085 115.968 44.5085 116.064 44.9405 116.064C45.3725 116.064 45.7618 116 46.1085 115.872C46.4605 115.744 46.8205 115.555 47.1885 115.304L47.8205 116.192C47.4258 116.501 46.9752 116.744 46.4685 116.92C45.9672 117.096 45.4525 117.184 44.9245 117.184C44.1085 117.184 43.4125 117 42.8365 116.632C42.2605 116.264 41.8205 115.752 41.5165 115.096C41.2178 114.435 41.0685 113.669 41.0685 112.8C41.0685 111.947 41.2205 111.189 41.5245 110.528C41.8285 109.867 42.2552 109.347 42.8045 108.968C43.3538 108.589 44.0018 108.4 44.7485 108.4C45.4578 108.4 46.0685 108.568 46.5805 108.904C47.0925 109.235 47.4845 109.709 47.7565 110.328C48.0338 110.941 48.1725 111.675 48.1725 112.528C48.1725 112.672 48.1698 112.808 48.1645 112.936C48.1592 113.059 48.1512 113.168 48.1405 113.264H42.4765ZM44.7645 109.504C44.1405 109.504 43.6178 109.725 43.1965 110.168C42.7805 110.611 42.5432 111.296 42.4845 112.224H46.8765C46.8605 111.323 46.6632 110.645 46.2845 110.192C45.9058 109.733 45.3992 109.504 44.7645 109.504ZM51.0943 117V115.968H52.4063V109.608H51.0943V108.576H53.4303L53.6783 110.568C54.0036 109.875 54.3983 109.339 54.8623 108.96C55.3263 108.581 55.9396 108.392 56.7023 108.392C56.9369 108.392 57.1449 108.411 57.3263 108.448C57.5129 108.48 57.7023 108.523 57.8943 108.576L57.5023 109.776C57.3263 109.728 57.1663 109.693 57.0223 109.672C56.8783 109.645 56.7129 109.632 56.5263 109.632C55.8809 109.632 55.3263 109.861 54.8623 110.32C54.3983 110.779 54.0276 111.472 53.7503 112.4V115.968H55.4623V117H51.0943ZM56.5983 111.424V109.592L56.7343 108.576H57.8943L57.7023 111.424H56.5983ZM67.632 108.576L64.568 117H63.008L59.968 108.576H61.392L63.832 115.776L66.24 108.576H67.632ZM71.2578 113.264C71.2844 113.915 71.4098 114.448 71.6338 114.864C71.8578 115.275 72.1538 115.579 72.5218 115.776C72.8898 115.968 73.2898 116.064 73.7218 116.064C74.1538 116.064 74.5431 116 74.8898 115.872C75.2418 115.744 75.6018 115.555 75.9698 115.304L76.6018 116.192C76.2071 116.501 75.7564 116.744 75.2498 116.92C74.7484 117.096 74.2338 117.184 73.7058 117.184C72.8898 117.184 72.1938 117 71.6178 116.632C71.0418 116.264 70.6018 115.752 70.2978 115.096C69.9991 114.435 69.8498 113.669 69.8498 112.8C69.8498 111.947 70.0018 111.189 70.3058 110.528C70.6098 109.867 71.0364 109.347 71.5858 108.968C72.1351 108.589 72.7831 108.4 73.5298 108.4C74.2391 108.4 74.8498 108.568 75.3618 108.904C75.8738 109.235 76.2658 109.709 76.5378 110.328C76.8151 110.941 76.9538 111.675 76.9538 112.528C76.9538 112.672 76.9511 112.808 76.9458 112.936C76.9404 113.059 76.9324 113.168 76.9218 113.264H71.2578ZM73.5458 109.504C72.9218 109.504 72.3991 109.725 71.9778 110.168C71.5618 110.611 71.3244 111.296 71.2658 112.224H75.6578C75.6418 111.323 75.4444 110.645 75.0658 110.192C74.6871 109.733 74.1804 109.504 73.5458 109.504ZM79.8755 117V115.968H81.1875V109.608H79.8755V108.576H82.2115L82.4595 110.568C82.7848 109.875 83.1795 109.339 83.6435 108.96C84.1075 108.581 84.7208 108.392 85.4835 108.392C85.7182 108.392 85.9262 108.411 86.1075 108.448C86.2942 108.48 86.4835 108.523 86.6755 108.576L86.2835 109.776C86.1075 109.728 85.9475 109.693 85.8035 109.672C85.6595 109.645 85.4942 109.632 85.3075 109.632C84.6622 109.632 84.1075 109.861 83.6435 110.32C83.1795 110.779 82.8088 111.472 82.5315 112.4V115.968H84.2435V117H79.8755ZM85.3795 111.424V109.592L85.5155 108.576H86.6755L86.4835 111.424H85.3795Z" fill="black"/>
<path d="M24.7218 138.606C25.2618 138.606 25.7138 138.674 26.0778 138.81C26.4418 138.946 26.7878 139.146 27.1158 139.41L26.5338 140.088C26.2738 139.868 25.9978 139.712 25.7058 139.62C25.4178 139.524 25.1158 139.476 24.7998 139.476C24.3478 139.476 23.9298 139.584 23.5458 139.8C23.1618 140.012 22.8518 140.366 22.6158 140.862C22.3838 141.354 22.2678 142.022 22.2678 142.866C22.2678 143.686 22.3778 144.344 22.5978 144.84C22.8218 145.336 23.1238 145.694 23.5038 145.914C23.8838 146.134 24.3078 146.244 24.7758 146.244C25.2398 146.244 25.6198 146.174 25.9158 146.034C26.2158 145.894 26.4758 145.734 26.6958 145.554L27.2358 146.238C26.9838 146.482 26.6558 146.694 26.2518 146.874C25.8478 147.05 25.3518 147.138 24.7638 147.138C24.0958 147.138 23.4898 146.974 22.9458 146.646C22.4058 146.318 21.9778 145.838 21.6618 145.206C21.3458 144.57 21.1878 143.79 21.1878 142.866C21.1878 141.938 21.3478 141.158 21.6678 140.526C21.9918 139.894 22.4218 139.416 22.9578 139.092C23.4978 138.768 24.0858 138.606 24.7218 138.606ZM31.2331 140.55C31.8291 140.55 32.3271 140.686 32.7271 140.958C33.1311 141.226 33.4331 141.606 33.6331 142.098C33.8371 142.59 33.9391 143.17 33.9391 143.838C33.9391 144.482 33.8351 145.052 33.6271 145.548C33.4191 146.044 33.1131 146.434 32.7091 146.718C32.3091 146.998 31.8131 147.138 31.2211 147.138C30.6291 147.138 30.1311 147.002 29.7271 146.73C29.3231 146.458 29.0171 146.076 28.8091 145.584C28.6051 145.088 28.5031 144.51 28.5031 143.85C28.5031 143.198 28.6071 142.624 28.8151 142.128C29.0231 141.632 29.3291 141.246 29.7331 140.97C30.1411 140.69 30.6411 140.55 31.2331 140.55ZM31.2331 141.372C30.6891 141.372 30.2771 141.574 29.9971 141.978C29.7211 142.378 29.5831 143.002 29.5831 143.85C29.5831 144.682 29.7191 145.3 29.9911 145.704C30.2671 146.108 30.6771 146.31 31.2211 146.31C31.7651 146.31 32.1731 146.108 32.4451 145.704C32.7211 145.3 32.8591 144.678 32.8591 143.838C32.8591 142.998 32.7231 142.378 32.4511 141.978C32.1791 141.574 31.7731 141.372 31.2331 141.372ZM36.0224 147V140.682H36.8804L36.9584 141.558C37.2144 141.234 37.5344 140.986 37.9184 140.814C38.3064 140.638 38.6824 140.55 39.0464 140.55C39.6664 140.55 40.1164 140.714 40.3964 141.042C40.6804 141.37 40.8224 141.826 40.8224 142.41V147H39.8144V143.154C39.8144 142.722 39.7904 142.374 39.7424 142.11C39.6944 141.842 39.5944 141.648 39.4424 141.528C39.2904 141.404 39.0544 141.342 38.7344 141.342C38.4864 141.342 38.2524 141.396 38.0324 141.504C37.8164 141.612 37.6224 141.748 37.4504 141.912C37.2824 142.072 37.1424 142.234 37.0304 142.398V147H36.0224ZM48.2337 146.682C48.0177 146.826 47.7557 146.938 47.4477 147.018C47.1397 147.098 46.8377 147.138 46.5417 147.138C45.8617 147.138 45.3377 146.96 44.9697 146.604C44.6017 146.248 44.4177 145.79 44.4177 145.23V141.462H42.9657V140.682H44.4177V139.248L45.4257 139.128V140.682H47.6097L47.4897 141.462H45.4257V145.218C45.4257 145.57 45.5177 145.838 45.7017 146.022C45.8897 146.206 46.1997 146.298 46.6317 146.298C46.8677 146.298 47.0857 146.27 47.2857 146.214C47.4857 146.158 47.6717 146.086 47.8437 145.998L48.2337 146.682ZM50.473 147V146.226H51.457V141.456H50.473V140.682H52.225L52.411 142.176C52.655 141.656 52.951 141.254 53.299 140.97C53.647 140.686 54.107 140.544 54.679 140.544C54.855 140.544 55.011 140.558 55.147 140.586C55.287 140.61 55.429 140.642 55.573 140.682L55.279 141.582C55.147 141.546 55.027 141.52 54.919 141.504C54.811 141.484 54.687 141.474 54.547 141.474C54.063 141.474 53.647 141.646 53.299 141.99C52.951 142.334 52.673 142.854 52.465 143.55V146.226H53.749V147H50.473ZM54.601 142.818V141.444L54.703 140.682H55.573L55.429 142.818H54.601ZM60.0143 140.55C60.6103 140.55 61.1083 140.686 61.5083 140.958C61.9123 141.226 62.2143 141.606 62.4143 142.098C62.6183 142.59 62.7203 143.17 62.7203 143.838C62.7203 144.482 62.6163 145.052 62.4083 145.548C62.2003 146.044 61.8943 146.434 61.4903 146.718C61.0903 146.998 60.5943 147.138 60.0023 147.138C59.4103 147.138 58.9123 147.002 58.5083 146.73C58.1043 146.458 57.7983 146.076 57.5903 145.584C57.3863 145.088 57.2843 144.51 57.2843 143.85C57.2843 143.198 57.3883 142.624 57.5963 142.128C57.8043 141.632 58.1103 141.246 58.5143 140.97C58.9223 140.69 59.4223 140.55 60.0143 140.55ZM60.0143 141.372C59.4703 141.372 59.0583 141.574 58.7783 141.978C58.5023 142.378 58.3643 143.002 58.3643 143.85C58.3643 144.682 58.5003 145.3 58.7723 145.704C59.0483 146.108 59.4583 146.31 60.0023 146.31C60.5463 146.31 60.9543 146.108 61.2263 145.704C61.5023 145.3 61.6403 144.678 61.6403 143.838C61.6403 142.998 61.5043 142.378 61.2323 141.978C60.9603 141.574 60.5543 141.372 60.0143 141.372ZM67.2637 138.138V145.44C67.2637 145.752 67.3597 145.974 67.5517 146.106C67.7477 146.234 67.9997 146.298 68.3077 146.298C68.4997 146.298 68.6817 146.278 68.8537 146.238C69.0257 146.198 69.1977 146.144 69.3697 146.076L69.6397 146.814C69.4677 146.898 69.2537 146.972 68.9977 147.036C68.7457 147.104 68.4597 147.138 68.1397 147.138C67.5797 147.138 67.1257 146.984 66.7777 146.676C66.4297 146.364 66.2557 145.934 66.2557 145.386V138.936H64.3177V138.138H67.2637ZM84.2103 146.682C83.9943 146.826 83.7323 146.938 83.4243 147.018C83.1163 147.098 82.8143 147.138 82.5183 147.138C81.8383 147.138 81.3143 146.96 80.9463 146.604C80.5783 146.248 80.3943 145.79 80.3943 145.23V141.462H78.9423V140.682H80.3943V139.248L81.4023 139.128V140.682H83.5863L83.4663 141.462H81.4023V145.218C81.4023 145.57 81.4943 145.838 81.6783 146.022C81.8663 146.206 82.1763 146.298 82.6083 146.298C82.8443 146.298 83.0623 146.27 83.2623 146.214C83.4623 146.158 83.6483 146.086 83.8203 145.998L84.2103 146.682ZM87.3976 138.042V141.546C87.6456 141.214 87.9496 140.966 88.3096 140.802C88.6736 140.634 89.0416 140.55 89.4136 140.55C90.0296 140.55 90.4796 140.714 90.7636 141.042C91.0476 141.37 91.1896 141.826 91.1896 142.41V147H90.1816V142.434C90.1816 142.054 90.0936 141.778 89.9176 141.606C89.7416 141.43 89.4656 141.342 89.0896 141.342C88.8496 141.342 88.6216 141.396 88.4056 141.504C88.1896 141.612 87.9956 141.746 87.8236 141.906C87.6516 142.066 87.5096 142.23 87.3976 142.398V147H86.3896V138.15L87.3976 138.042ZM94.3769 144.198C94.3969 144.686 94.4909 145.086 94.6589 145.398C94.8269 145.706 95.0489 145.934 95.3249 146.082C95.6009 146.226 95.9009 146.298 96.2249 146.298C96.5489 146.298 96.8409 146.25 97.1009 146.154C97.3649 146.058 97.6349 145.916 97.9109 145.728L98.3849 146.394C98.0889 146.626 97.7509 146.808 97.3709 146.94C96.9949 147.072 96.6089 147.138 96.2129 147.138C95.6009 147.138 95.0789 147 94.6469 146.724C94.2149 146.448 93.8849 146.064 93.6569 145.572C93.4329 145.076 93.3209 144.502 93.3209 143.85C93.3209 143.21 93.4349 142.642 93.6629 142.146C93.8909 141.65 94.2109 141.26 94.6229 140.976C95.0349 140.692 95.5209 140.55 96.0809 140.55C96.6129 140.55 97.0709 140.676 97.4549 140.928C97.8389 141.176 98.1329 141.532 98.3369 141.996C98.5449 142.456 98.6489 143.006 98.6489 143.646C98.6489 143.754 98.6469 143.856 98.6429 143.952C98.6389 144.044 98.6329 144.126 98.6249 144.198H94.3769ZM96.0929 141.378C95.6249 141.378 95.2329 141.544 94.9169 141.876C94.6049 142.208 94.4269 142.722 94.3829 143.418H97.6769C97.6649 142.742 97.5169 142.234 97.2329 141.894C96.9489 141.55 96.5689 141.378 96.0929 141.378ZM45.3657 162.304C45.8497 162.304 46.2317 162.214 46.5117 162.034C46.7957 161.85 46.9377 161.606 46.9377 161.302C46.9377 161.11 46.9017 160.944 46.8297 160.804C46.7617 160.664 46.6197 160.538 46.4037 160.426C46.1877 160.314 45.8557 160.202 45.4077 160.09C44.9717 159.982 44.5917 159.858 44.2677 159.718C43.9477 159.574 43.6977 159.388 43.5177 159.16C43.3417 158.932 43.2537 158.636 43.2537 158.272C43.2537 157.916 43.3537 157.61 43.5537 157.354C43.7577 157.094 44.0397 156.896 44.3997 156.76C44.7597 156.62 45.1777 156.55 45.6537 156.55C46.1617 156.55 46.6037 156.618 46.9797 156.754C47.3597 156.886 47.6817 157.05 47.9457 157.246L47.5017 157.93C47.2617 157.766 46.9977 157.632 46.7097 157.528C46.4217 157.42 46.0737 157.366 45.6657 157.366C45.1697 157.366 44.8177 157.444 44.6097 157.6C44.4017 157.752 44.2977 157.95 44.2977 158.194C44.2977 158.378 44.3477 158.532 44.4477 158.656C44.5517 158.776 44.7257 158.886 44.9697 158.986C45.2137 159.082 45.5497 159.188 45.9777 159.304C46.3897 159.412 46.7477 159.542 47.0517 159.694C47.3597 159.846 47.5997 160.046 47.7717 160.294C47.9437 160.542 48.0297 160.862 48.0297 161.254C48.0297 161.702 47.9017 162.066 47.6457 162.346C47.3897 162.622 47.0577 162.824 46.6497 162.952C46.2457 163.076 45.8177 163.138 45.3657 163.138C44.7937 163.138 44.3057 163.056 43.9017 162.892C43.5017 162.724 43.1657 162.522 42.8937 162.286L43.4697 161.62C43.7177 161.824 44.0017 161.99 44.3217 162.118C44.6457 162.242 44.9937 162.304 45.3657 162.304ZM53.269 162.268C53.585 162.268 53.879 162.216 54.151 162.112C54.427 162.008 54.681 161.876 54.913 161.716L55.405 162.376C55.129 162.612 54.797 162.798 54.409 162.934C54.021 163.07 53.641 163.138 53.269 163.138C52.641 163.138 52.105 163.004 51.661 162.736C51.221 162.464 50.885 162.084 50.653 161.596C50.421 161.104 50.305 160.528 50.305 159.868C50.305 159.236 50.421 158.67 50.653 158.17C50.889 157.666 51.227 157.27 51.667 156.982C52.111 156.694 52.649 156.55 53.281 156.55C53.685 156.55 54.063 156.612 54.415 156.736C54.771 156.856 55.097 157.038 55.393 157.282L54.901 157.954C54.633 157.766 54.363 157.626 54.091 157.534C53.823 157.438 53.549 157.39 53.269 157.39C52.725 157.39 52.277 157.594 51.925 158.002C51.573 158.41 51.397 159.032 51.397 159.868C51.397 160.428 51.477 160.886 51.637 161.242C51.801 161.594 52.023 161.854 52.303 162.022C52.587 162.186 52.909 162.268 53.269 162.268ZM58.4003 160.198C58.4203 160.686 58.5143 161.086 58.6823 161.398C58.8503 161.706 59.0723 161.934 59.3483 162.082C59.6243 162.226 59.9243 162.298 60.2483 162.298C60.5723 162.298 60.8643 162.25 61.1243 162.154C61.3883 162.058 61.6583 161.916 61.9343 161.728L62.4083 162.394C62.1123 162.626 61.7743 162.808 61.3943 162.94C61.0183 163.072 60.6323 163.138 60.2363 163.138C59.6243 163.138 59.1023 163 58.6703 162.724C58.2383 162.448 57.9083 162.064 57.6803 161.572C57.4563 161.076 57.3443 160.502 57.3443 159.85C57.3443 159.21 57.4583 158.642 57.6863 158.146C57.9143 157.65 58.2343 157.26 58.6463 156.976C59.0583 156.692 59.5443 156.55 60.1043 156.55C60.6363 156.55 61.0943 156.676 61.4783 156.928C61.8623 157.176 62.1563 157.532 62.3603 157.996C62.5683 158.456 62.6723 159.006 62.6723 159.646C62.6723 159.754 62.6703 159.856 62.6663 159.952C62.6623 160.044 62.6563 160.126 62.6483 160.198H58.4003ZM60.1163 157.378C59.6483 157.378 59.2563 157.544 58.9403 157.876C58.6283 158.208 58.4503 158.722 58.4063 159.418H61.7003C61.6883 158.742 61.5403 158.234 61.2563 157.894C60.9723 157.55 60.5923 157.378 60.1163 157.378ZM64.8037 163V156.682H65.6617L65.7397 157.558C65.9957 157.234 66.3157 156.986 66.6997 156.814C67.0877 156.638 67.4637 156.55 67.8277 156.55C68.4477 156.55 68.8977 156.714 69.1777 157.042C69.4617 157.37 69.6037 157.826 69.6037 158.41V163H68.5957V159.154C68.5957 158.722 68.5717 158.374 68.5237 158.11C68.4757 157.842 68.3757 157.648 68.2237 157.528C68.0717 157.404 67.8357 157.342 67.5157 157.342C67.2677 157.342 67.0337 157.396 66.8137 157.504C66.5977 157.612 66.4037 157.748 66.2317 157.912C66.0637 158.072 65.9237 158.234 65.8117 158.398V163H64.8037ZM72.791 160.198C72.811 160.686 72.905 161.086 73.073 161.398C73.241 161.706 73.463 161.934 73.739 162.082C74.015 162.226 74.315 162.298 74.639 162.298C74.963 162.298 75.255 162.25 75.515 162.154C75.779 162.058 76.049 161.916 76.325 161.728L76.799 162.394C76.503 162.626 76.165 162.808 75.785 162.94C75.409 163.072 75.023 163.138 74.627 163.138C74.015 163.138 73.493 163 73.061 162.724C72.629 162.448 72.299 162.064 72.071 161.572C71.847 161.076 71.735 160.502 71.735 159.85C71.735 159.21 71.849 158.642 72.077 158.146C72.305 157.65 72.625 157.26 73.037 156.976C73.449 156.692 73.935 156.55 74.495 156.55C75.027 156.55 75.485 156.676 75.869 156.928C76.253 157.176 76.547 157.532 76.751 157.996C76.959 158.456 77.063 159.006 77.063 159.646C77.063 159.754 77.061 159.856 77.057 159.952C77.053 160.044 77.047 160.126 77.039 160.198H72.791ZM74.507 157.378C74.039 157.378 73.647 157.544 73.331 157.876C73.019 158.208 72.841 158.722 72.797 159.418H76.091C76.079 158.742 75.931 158.234 75.647 157.894C75.363 157.55 74.983 157.378 74.507 157.378Z" fill="black"/>
<rect x="272" y="55" width="120" height="160" rx="12" fill="#FFE3E3"/>
<path d="M326.137 84.984L324.457 96H322.633L321.369 87.688L320.097 96H318.233L316.681 84.984H318.073L319.249 94.472L320.569 86.264H322.273L323.529 94.472L324.849 84.984H326.137ZM328.867 92.264C328.894 92.9147 329.019 93.448 329.243 93.864C329.467 94.2747 329.763 94.5787 330.131 94.776C330.499 94.968 330.899 95.064 331.331 95.064C331.763 95.064 332.152 95 332.499 94.872C332.851 94.744 333.211 94.5547 333.579 94.304L334.211 95.192C333.816 95.5013 333.366 95.744 332.859 95.92C332.358 96.096 331.843 96.184 331.315 96.184C330.499 96.184 329.803 96 329.227 95.632C328.651 95.264 328.211 94.752 327.907 94.096C327.608 93.4347 327.459 92.6693 327.459 91.8C327.459 90.9467 327.611 90.1893 327.915 89.528C328.219 88.8667 328.646 88.3467 329.195 87.968C329.744 87.5893 330.392 87.4 331.139 87.4C331.848 87.4 332.459 87.568 332.971 87.904C333.483 88.2347 333.875 88.7093 334.147 89.328C334.424 89.9413 334.563 90.6747 334.563 91.528C334.563 91.672 334.56 91.808 334.555 91.936C334.55 92.0587 334.542 92.168 334.531 92.264H328.867ZM331.155 88.504C330.531 88.504 330.008 88.7253 329.587 89.168C329.171 89.6107 328.934 90.296 328.875 91.224H333.267C333.251 90.3227 333.054 89.6453 332.675 89.192C332.296 88.7333 331.79 88.504 331.155 88.504ZM338.749 88.672C339.058 88.2667 339.413 87.9547 339.813 87.736C340.218 87.512 340.664 87.4 341.149 87.4C341.901 87.4 342.509 87.5813 342.973 87.944C343.437 88.3067 343.776 88.8187 343.989 89.48C344.202 90.136 344.309 90.904 344.309 91.784C344.309 92.632 344.181 93.3893 343.925 94.056C343.669 94.7173 343.293 95.2373 342.797 95.616C342.306 95.9947 341.698 96.184 340.973 96.184C339.997 96.184 339.232 95.832 338.677 95.128L338.581 96H337.405V84.184L338.749 84.016V88.672ZM340.653 95.096C341.357 95.096 341.898 94.824 342.277 94.28C342.656 93.736 342.845 92.9013 342.845 91.776C342.845 91.04 342.77 90.4293 342.621 89.944C342.472 89.4533 342.248 89.088 341.949 88.848C341.656 88.6027 341.293 88.48 340.861 88.48C340.392 88.48 339.978 88.6213 339.621 88.904C339.269 89.1813 338.978 89.4907 338.749 89.832V94.008C338.968 94.3387 339.242 94.6027 339.573 94.8C339.909 94.9973 340.269 95.096 340.653 95.096ZM307.947 105.808C308.667 105.808 309.269 105.899 309.755 106.08C310.24 106.261 310.701 106.528 311.139 106.88L310.363 107.784C310.016 107.491 309.648 107.283 309.259 107.16C308.875 107.032 308.472 106.968 308.051 106.968C307.448 106.968 306.891 107.112 306.379 107.4C305.867 107.683 305.453 108.155 305.139 108.816C304.829 109.472 304.675 110.363 304.675 111.488C304.675 112.581 304.821 113.459 305.115 114.12C305.413 114.781 305.816 115.259 306.323 115.552C306.829 115.845 307.395 115.992 308.019 115.992C308.637 115.992 309.144 115.899 309.539 115.712C309.939 115.525 310.285 115.312 310.579 115.072L311.299 115.984C310.963 116.309 310.525 116.592 309.987 116.832C309.448 117.067 308.787 117.184 308.003 117.184C307.112 117.184 306.304 116.965 305.579 116.528C304.859 116.091 304.288 115.451 303.867 114.608C303.445 113.76 303.235 112.72 303.235 111.488C303.235 110.251 303.448 109.211 303.875 108.368C304.307 107.525 304.88 106.888 305.595 106.456C306.315 106.024 307.099 105.808 307.947 105.808ZM316.701 105.184V114.92C316.701 115.336 316.829 115.632 317.085 115.808C317.346 115.979 317.682 116.064 318.093 116.064C318.349 116.064 318.591 116.037 318.821 115.984C319.05 115.931 319.279 115.859 319.509 115.768L319.869 116.752C319.639 116.864 319.354 116.963 319.013 117.048C318.677 117.139 318.295 117.184 317.869 117.184C317.122 117.184 316.517 116.979 316.053 116.568C315.589 116.152 315.357 115.579 315.357 114.848V106.248H312.773V105.184H316.701ZM327.278 108.576V115.936H329.654V117H323.334V115.936H325.934V109.64H323.414V108.576H327.278ZM326.206 104.632C326.505 104.632 326.742 104.723 326.918 104.904C327.1 105.085 327.19 105.307 327.19 105.568C327.19 105.84 327.1 106.069 326.918 106.256C326.742 106.437 326.505 106.528 326.206 106.528C325.924 106.528 325.692 106.437 325.51 106.256C325.329 106.069 325.238 105.84 325.238 105.568C325.238 105.307 325.329 105.085 325.51 104.904C325.692 104.723 325.924 104.632 326.206 104.632ZM333.664 113.264C333.691 113.915 333.816 114.448 334.04 114.864C334.264 115.275 334.56 115.579 334.928 115.776C335.296 115.968 335.696 116.064 336.128 116.064C336.56 116.064 336.949 116 337.296 115.872C337.648 115.744 338.008 115.555 338.376 115.304L339.008 116.192C338.613 116.501 338.163 116.744 337.656 116.92C337.155 117.096 336.64 117.184 336.112 117.184C335.296 117.184 334.6 117 334.024 116.632C333.448 116.264 333.008 115.752 332.704 115.096C332.405 114.435 332.256 113.669 332.256 112.8C332.256 111.947 332.408 111.189 332.712 110.528C333.016 109.867 333.443 109.347 333.992 108.968C334.541 108.589 335.189 108.4 335.936 108.4C336.645 108.4 337.256 108.568 337.768 108.904C338.28 109.235 338.672 109.709 338.944 110.328C339.221 110.941 339.36 111.675 339.36 112.528C339.36 112.672 339.357 112.808 339.352 112.936C339.347 113.059 339.339 113.168 339.328 113.264H333.664ZM335.952 109.504C335.328 109.504 334.805 109.725 334.384 110.168C333.968 110.611 333.731 111.296 333.672 112.224H338.064C338.048 111.323 337.851 110.645 337.472 110.192C337.093 109.733 336.587 109.504 335.952 109.504ZM342.202 117V108.576H343.346L343.45 109.744C343.791 109.312 344.218 108.981 344.73 108.752C345.247 108.517 345.748 108.4 346.234 108.4C347.06 108.4 347.66 108.619 348.034 109.056C348.412 109.493 348.602 110.101 348.602 110.88V117H347.258V111.872C347.258 111.296 347.226 110.832 347.162 110.48C347.098 110.123 346.964 109.864 346.762 109.704C346.559 109.539 346.244 109.456 345.818 109.456C345.487 109.456 345.175 109.528 344.882 109.672C344.594 109.816 344.335 109.997 344.106 110.216C343.882 110.429 343.695 110.645 343.546 110.864V117H342.202ZM358.484 116.576C358.196 116.768 357.846 116.917 357.436 117.024C357.025 117.131 356.622 117.184 356.228 117.184C355.321 117.184 354.622 116.947 354.132 116.472C353.641 115.997 353.396 115.387 353.396 114.64V109.616H351.46V108.576H353.396V106.664L354.74 106.504V108.576H357.652L357.492 109.616H354.74V114.624C354.74 115.093 354.862 115.451 355.108 115.696C355.358 115.941 355.772 116.064 356.348 116.064C356.662 116.064 356.953 116.027 357.22 115.952C357.486 115.877 357.734 115.781 357.964 115.664L358.484 116.576Z" fill="black"/>
<path d="M303.473 141.054C303.473 141.466 303.383 141.826 303.203 142.134C303.027 142.442 302.787 142.696 302.483 142.896C302.179 143.096 301.837 143.242 301.457 143.334L303.905 147H302.657L300.401 143.454H299.285V147H298.241V138.738H300.365C301.385 138.738 302.157 138.934 302.681 139.326C303.209 139.714 303.473 140.29 303.473 141.054ZM302.357 141.054C302.357 140.522 302.205 140.142 301.901 139.914C301.597 139.682 301.125 139.566 300.485 139.566H299.285V142.638H300.485C301.077 142.638 301.537 142.518 301.865 142.278C302.193 142.034 302.357 141.626 302.357 141.054ZM306.217 144.198C306.237 144.686 306.331 145.086 306.499 145.398C306.667 145.706 306.889 145.934 307.165 146.082C307.441 146.226 307.741 146.298 308.065 146.298C308.389 146.298 308.681 146.25 308.941 146.154C309.205 146.058 309.475 145.916 309.751 145.728L310.225 146.394C309.929 146.626 309.591 146.808 309.211 146.94C308.835 147.072 308.449 147.138 308.053 147.138C307.441 147.138 306.919 147 306.487 146.724C306.055 146.448 305.725 146.064 305.497 145.572C305.273 145.076 305.161 144.502 305.161 143.85C305.161 143.21 305.275 142.642 305.503 142.146C305.731 141.65 306.051 141.26 306.463 140.976C306.875 140.692 307.361 140.55 307.921 140.55C308.453 140.55 308.911 140.676 309.295 140.928C309.679 141.176 309.973 141.532 310.177 141.996C310.385 142.456 310.489 143.006 310.489 143.646C310.489 143.754 310.487 143.856 310.483 143.952C310.479 144.044 310.473 144.126 310.465 144.198H306.217ZM307.933 141.378C307.465 141.378 307.073 141.544 306.757 141.876C306.445 142.208 306.267 142.722 306.223 143.418H309.517C309.505 142.742 309.357 142.234 309.073 141.894C308.789 141.55 308.409 141.378 307.933 141.378ZM312.62 147V140.682H313.478L313.556 141.558C313.812 141.234 314.132 140.986 314.516 140.814C314.904 140.638 315.28 140.55 315.644 140.55C316.264 140.55 316.714 140.714 316.994 141.042C317.278 141.37 317.42 141.826 317.42 142.41V147H316.412V143.154C316.412 142.722 316.388 142.374 316.34 142.11C316.292 141.842 316.192 141.648 316.04 141.528C315.888 141.404 315.652 141.342 315.332 141.342C315.084 141.342 314.85 141.396 314.63 141.504C314.414 141.612 314.22 141.748 314.048 141.912C313.88 142.072 313.74 142.234 313.628 142.398V147H312.62ZM323.595 138.012L324.603 138.138V147H323.721L323.625 146.166C323.389 146.502 323.117 146.748 322.809 146.904C322.505 147.06 322.179 147.138 321.831 147.138C321.283 147.138 320.831 147 320.475 146.724C320.119 146.448 319.855 146.064 319.683 145.572C319.511 145.076 319.425 144.502 319.425 143.85C319.425 143.218 319.523 142.654 319.719 142.158C319.915 141.658 320.197 141.266 320.565 140.982C320.937 140.694 321.383 140.55 321.903 140.55C322.267 140.55 322.587 140.614 322.863 140.742C323.139 140.866 323.383 141.05 323.595 141.294V138.012ZM322.167 141.36C321.639 141.36 321.233 141.566 320.949 141.978C320.665 142.39 320.523 143.014 320.523 143.85C320.523 144.394 320.581 144.85 320.697 145.218C320.813 145.586 320.983 145.862 321.207 146.046C321.435 146.23 321.713 146.322 322.041 146.322C322.401 146.322 322.707 146.22 322.959 146.016C323.215 145.812 323.427 145.582 323.595 145.326V142.17C323.423 141.914 323.215 141.716 322.971 141.576C322.727 141.432 322.459 141.36 322.167 141.36ZM327.803 144.198C327.823 144.686 327.917 145.086 328.085 145.398C328.253 145.706 328.475 145.934 328.751 146.082C329.027 146.226 329.327 146.298 329.651 146.298C329.975 146.298 330.267 146.25 330.527 146.154C330.791 146.058 331.061 145.916 331.337 145.728L331.811 146.394C331.515 146.626 331.177 146.808 330.797 146.94C330.421 147.072 330.035 147.138 329.639 147.138C329.027 147.138 328.505 147 328.073 146.724C327.641 146.448 327.311 146.064 327.083 145.572C326.859 145.076 326.747 144.502 326.747 143.85C326.747 143.21 326.861 142.642 327.089 142.146C327.317 141.65 327.637 141.26 328.049 140.976C328.461 140.692 328.947 140.55 329.507 140.55C330.039 140.55 330.497 140.676 330.881 140.928C331.265 141.176 331.559 141.532 331.763 141.996C331.971 142.456 332.075 143.006 332.075 143.646C332.075 143.754 332.073 143.856 332.069 143.952C332.065 144.044 332.059 144.126 332.051 144.198H327.803ZM329.519 141.378C329.051 141.378 328.659 141.544 328.343 141.876C328.031 142.208 327.853 142.722 327.809 143.418H331.103C331.091 142.742 330.943 142.234 330.659 141.894C330.375 141.55 329.995 141.378 329.519 141.378ZM334.266 147V146.226H335.25V141.456H334.266V140.682H336.018L336.204 142.176C336.448 141.656 336.744 141.254 337.092 140.97C337.44 140.686 337.9 140.544 338.472 140.544C338.648 140.544 338.804 140.558 338.94 140.586C339.08 140.61 339.222 140.642 339.366 140.682L339.072 141.582C338.94 141.546 338.82 141.52 338.712 141.504C338.604 141.484 338.48 141.474 338.34 141.474C337.856 141.474 337.44 141.646 337.092 141.99C336.744 142.334 336.466 142.854 336.258 143.55V146.226H337.542V147H334.266ZM338.394 142.818V141.444L338.496 140.682H339.366L339.222 142.818H338.394ZM353.613 146.682C353.397 146.826 353.135 146.938 352.827 147.018C352.519 147.098 352.217 147.138 351.921 147.138C351.241 147.138 350.717 146.96 350.349 146.604C349.981 146.248 349.797 145.79 349.797 145.23V141.462H348.345V140.682H349.797V139.248L350.805 139.128V140.682H352.989L352.869 141.462H350.805V145.218C350.805 145.57 350.897 145.838 351.081 146.022C351.269 146.206 351.579 146.298 352.011 146.298C352.247 146.298 352.465 146.27 352.665 146.214C352.865 146.158 353.051 146.086 353.223 145.998L353.613 146.682ZM356.8 138.042V141.546C357.048 141.214 357.352 140.966 357.712 140.802C358.076 140.634 358.444 140.55 358.816 140.55C359.432 140.55 359.882 140.714 360.166 141.042C360.45 141.37 360.592 141.826 360.592 142.41V147H359.584V142.434C359.584 142.054 359.496 141.778 359.32 141.606C359.144 141.43 358.868 141.342 358.492 141.342C358.252 141.342 358.024 141.396 357.808 141.504C357.592 141.612 357.398 141.746 357.226 141.906C357.054 142.066 356.912 142.23 356.8 142.398V147H355.792V138.15L356.8 138.042ZM363.779 144.198C363.799 144.686 363.893 145.086 364.061 145.398C364.229 145.706 364.451 145.934 364.727 146.082C365.003 146.226 365.303 146.298 365.627 146.298C365.951 146.298 366.243 146.25 366.503 146.154C366.767 146.058 367.037 145.916 367.313 145.728L367.787 146.394C367.491 146.626 367.153 146.808 366.773 146.94C366.397 147.072 366.011 147.138 365.615 147.138C365.003 147.138 364.481 147 364.049 146.724C363.617 146.448 363.287 146.064 363.059 145.572C362.835 145.076 362.723 144.502 362.723 143.85C362.723 143.21 362.837 142.642 363.065 142.146C363.293 141.65 363.613 141.26 364.025 140.976C364.437 140.692 364.923 140.55 365.483 140.55C366.015 140.55 366.473 140.676 366.857 140.928C367.241 141.176 367.535 141.532 367.739 141.996C367.947 142.456 368.051 143.006 368.051 143.646C368.051 143.754 368.049 143.856 368.045 143.952C368.041 144.044 368.035 144.126 368.027 144.198H363.779ZM365.495 141.378C365.027 141.378 364.635 141.544 364.319 141.876C364.007 142.208 363.829 142.722 363.785 143.418H367.079C367.067 142.742 366.919 142.234 366.635 141.894C366.351 141.55 365.971 141.378 365.495 141.378ZM296.78 162.304C297.264 162.304 297.646 162.214 297.926 162.034C298.21 161.85 298.352 161.606 298.352 161.302C298.352 161.11 298.316 160.944 298.244 160.804C298.176 160.664 298.034 160.538 297.818 160.426C297.602 160.314 297.27 160.202 296.822 160.09C296.386 159.982 296.006 159.858 295.682 159.718C295.362 159.574 295.112 159.388 294.932 159.16C294.756 158.932 294.668 158.636 294.668 158.272C294.668 157.916 294.768 157.61 294.968 157.354C295.172 157.094 295.454 156.896 295.814 156.76C296.174 156.62 296.592 156.55 297.068 156.55C297.576 156.55 298.018 156.618 298.394 156.754C298.774 156.886 299.096 157.05 299.36 157.246L298.916 157.93C298.676 157.766 298.412 157.632 298.124 157.528C297.836 157.42 297.488 157.366 297.08 157.366C296.584 157.366 296.232 157.444 296.024 157.6C295.816 157.752 295.712 157.95 295.712 158.194C295.712 158.378 295.762 158.532 295.862 158.656C295.966 158.776 296.14 158.886 296.384 158.986C296.628 159.082 296.964 159.188 297.392 159.304C297.804 159.412 298.162 159.542 298.466 159.694C298.774 159.846 299.014 160.046 299.186 160.294C299.358 160.542 299.444 160.862 299.444 161.254C299.444 161.702 299.316 162.066 299.06 162.346C298.804 162.622 298.472 162.824 298.064 162.952C297.66 163.076 297.232 163.138 296.78 163.138C296.208 163.138 295.72 163.056 295.316 162.892C294.916 162.724 294.58 162.522 294.308 162.286L294.884 161.62C295.132 161.824 295.416 161.99 295.736 162.118C296.06 162.242 296.408 162.304 296.78 162.304ZM304.683 162.268C304.999 162.268 305.293 162.216 305.565 162.112C305.841 162.008 306.095 161.876 306.327 161.716L306.819 162.376C306.543 162.612 306.211 162.798 305.823 162.934C305.435 163.07 305.055 163.138 304.683 163.138C304.055 163.138 303.519 163.004 303.075 162.736C302.635 162.464 302.299 162.084 302.067 161.596C301.835 161.104 301.719 160.528 301.719 159.868C301.719 159.236 301.835 158.67 302.067 158.17C302.303 157.666 302.641 157.27 303.081 156.982C303.525 156.694 304.063 156.55 304.695 156.55C305.099 156.55 305.477 156.612 305.829 156.736C306.185 156.856 306.511 157.038 306.807 157.282L306.315 157.954C306.047 157.766 305.777 157.626 305.505 157.534C305.237 157.438 304.963 157.39 304.683 157.39C304.139 157.39 303.691 157.594 303.339 158.002C302.987 158.41 302.811 159.032 302.811 159.868C302.811 160.428 302.891 160.886 303.051 161.242C303.215 161.594 303.437 161.854 303.717 162.022C304.001 162.186 304.323 162.268 304.683 162.268ZM309.814 160.198C309.834 160.686 309.928 161.086 310.096 161.398C310.264 161.706 310.486 161.934 310.762 162.082C311.038 162.226 311.338 162.298 311.662 162.298C311.986 162.298 312.278 162.25 312.538 162.154C312.802 162.058 313.072 161.916 313.348 161.728L313.822 162.394C313.526 162.626 313.188 162.808 312.808 162.94C312.432 163.072 312.046 163.138 311.65 163.138C311.038 163.138 310.516 163 310.084 162.724C309.652 162.448 309.322 162.064 309.094 161.572C308.87 161.076 308.758 160.502 308.758 159.85C308.758 159.21 308.872 158.642 309.1 158.146C309.328 157.65 309.648 157.26 310.06 156.976C310.472 156.692 310.958 156.55 311.518 156.55C312.05 156.55 312.508 156.676 312.892 156.928C313.276 157.176 313.57 157.532 313.774 157.996C313.982 158.456 314.086 159.006 314.086 159.646C314.086 159.754 314.084 159.856 314.08 159.952C314.076 160.044 314.07 160.126 314.062 160.198H309.814ZM311.53 157.378C311.062 157.378 310.67 157.544 310.354 157.876C310.042 158.208 309.864 158.722 309.82 159.418H313.114C313.102 158.742 312.954 158.234 312.67 157.894C312.386 157.55 312.006 157.378 311.53 157.378ZM316.218 163V156.682H317.076L317.154 157.558C317.41 157.234 317.73 156.986 318.114 156.814C318.502 156.638 318.878 156.55 319.242 156.55C319.862 156.55 320.312 156.714 320.592 157.042C320.876 157.37 321.018 157.826 321.018 158.41V163H320.01V159.154C320.01 158.722 319.986 158.374 319.938 158.11C319.89 157.842 319.79 157.648 319.638 157.528C319.486 157.404 319.25 157.342 318.93 157.342C318.682 157.342 318.448 157.396 318.228 157.504C318.012 157.612 317.818 157.748 317.646 157.912C317.478 158.072 317.338 158.234 317.226 158.398V163H316.218ZM324.205 160.198C324.225 160.686 324.319 161.086 324.487 161.398C324.655 161.706 324.877 161.934 325.153 162.082C325.429 162.226 325.729 162.298 326.053 162.298C326.377 162.298 326.669 162.25 326.929 162.154C327.193 162.058 327.463 161.916 327.739 161.728L328.213 162.394C327.917 162.626 327.579 162.808 327.199 162.94C326.823 163.072 326.437 163.138 326.041 163.138C325.429 163.138 324.907 163 324.475 162.724C324.043 162.448 323.713 162.064 323.485 161.572C323.261 161.076 323.149 160.502 323.149 159.85C323.149 159.21 323.263 158.642 323.491 158.146C323.719 157.65 324.039 157.26 324.451 156.976C324.863 156.692 325.349 156.55 325.909 156.55C326.441 156.55 326.899 156.676 327.283 156.928C327.667 157.176 327.961 157.532 328.165 157.996C328.373 158.456 328.477 159.006 328.477 159.646C328.477 159.754 328.475 159.856 328.471 159.952C328.467 160.044 328.461 160.126 328.453 160.198H324.205ZM325.921 157.378C325.453 157.378 325.061 157.544 324.745 157.876C324.433 158.208 324.255 158.722 324.211 159.418H327.505C327.493 158.742 327.345 158.234 327.061 157.894C326.777 157.55 326.397 157.378 325.921 157.378ZM338.812 156.682V161.158C338.812 161.574 338.898 161.874 339.07 162.058C339.242 162.242 339.51 162.334 339.874 162.334C340.222 162.334 340.55 162.236 340.858 162.04C341.17 161.84 341.412 161.604 341.584 161.332V156.682H342.592V163H341.734L341.65 162.148C341.402 162.468 341.096 162.714 340.732 162.886C340.368 163.054 340 163.138 339.628 163.138C339.016 163.138 338.558 162.976 338.254 162.652C337.954 162.324 337.804 161.866 337.804 161.278V156.682H338.812ZM347.147 162.304C347.631 162.304 348.013 162.214 348.293 162.034C348.577 161.85 348.719 161.606 348.719 161.302C348.719 161.11 348.683 160.944 348.611 160.804C348.543 160.664 348.401 160.538 348.185 160.426C347.969 160.314 347.637 160.202 347.189 160.09C346.753 159.982 346.373 159.858 346.049 159.718C345.729 159.574 345.479 159.388 345.299 159.16C345.123 158.932 345.035 158.636 345.035 158.272C345.035 157.916 345.135 157.61 345.335 157.354C345.539 157.094 345.821 156.896 346.181 156.76C346.541 156.62 346.959 156.55 347.435 156.55C347.943 156.55 348.385 156.618 348.761 156.754C349.141 156.886 349.463 157.05 349.727 157.246L349.283 157.93C349.043 157.766 348.779 157.632 348.491 157.528C348.203 157.42 347.855 157.366 347.447 157.366C346.951 157.366 346.599 157.444 346.391 157.6C346.183 157.752 346.079 157.95 346.079 158.194C346.079 158.378 346.129 158.532 346.229 158.656C346.333 158.776 346.507 158.886 346.751 158.986C346.995 159.082 347.331 159.188 347.759 159.304C348.171 159.412 348.529 159.542 348.833 159.694C349.141 159.846 349.381 160.046 349.553 160.294C349.725 160.542 349.811 160.862 349.811 161.254C349.811 161.702 349.683 162.066 349.427 162.346C349.171 162.622 348.839 162.824 348.431 162.952C348.027 163.076 347.599 163.138 347.147 163.138C346.575 163.138 346.087 163.056 345.683 162.892C345.283 162.724 344.947 162.522 344.675 162.286L345.251 161.62C345.499 161.824 345.783 161.99 346.103 162.118C346.427 162.242 346.775 162.304 347.147 162.304ZM355.392 156.682V162.202H357.174V163H352.434V162.202H354.384V157.48H352.494V156.682H355.392ZM354.588 153.724C354.812 153.724 354.99 153.792 355.122 153.928C355.258 154.064 355.326 154.23 355.326 154.426C355.326 154.63 355.258 154.802 355.122 154.942C354.99 155.078 354.812 155.146 354.588 155.146C354.376 155.146 354.202 155.078 354.066 154.942C353.93 154.802 353.862 154.63 353.862 154.426C353.862 154.23 353.93 154.064 354.066 153.928C354.202 153.792 354.376 153.724 354.588 153.724ZM359.39 163V156.682H360.248L360.326 157.558C360.582 157.234 360.902 156.986 361.286 156.814C361.674 156.638 362.05 156.55 362.414 156.55C363.034 156.55 363.484 156.714 363.764 157.042C364.048 157.37 364.19 157.826 364.19 158.41V163H363.182V159.154C363.182 158.722 363.158 158.374 363.11 158.11C363.062 157.842 362.962 157.648 362.81 157.528C362.658 157.404 362.422 157.342 362.102 157.342C361.854 157.342 361.62 157.396 361.4 157.504C361.184 157.612 360.99 157.748 360.818 157.912C360.65 158.072 360.51 158.234 360.398 158.398V163H359.39ZM371.721 156.01L372.033 156.958C371.765 157.042 371.479 157.094 371.175 157.114C370.871 157.134 370.541 157.144 370.185 157.144C370.549 157.312 370.823 157.53 371.007 157.798C371.191 158.062 371.283 158.374 371.283 158.734C371.283 159.15 371.189 159.52 371.001 159.844C370.813 160.168 370.541 160.422 370.185 160.606C369.833 160.79 369.407 160.882 368.907 160.882C368.695 160.882 368.517 160.872 368.373 160.852C368.233 160.832 368.097 160.802 367.965 160.762C367.869 160.826 367.789 160.914 367.725 161.026C367.665 161.138 367.635 161.254 367.635 161.374C367.635 161.526 367.695 161.652 367.815 161.752C367.935 161.852 368.157 161.902 368.481 161.902H369.621C370.045 161.902 370.425 161.978 370.761 162.13C371.101 162.282 371.367 162.486 371.559 162.742C371.755 162.998 371.853 163.29 371.853 163.618C371.853 164.238 371.589 164.714 371.061 165.046C370.537 165.378 369.795 165.544 368.835 165.544C368.163 165.544 367.633 165.474 367.245 165.334C366.857 165.198 366.579 164.988 366.411 164.704C366.247 164.424 366.165 164.07 366.165 163.642H367.077C367.077 163.886 367.125 164.088 367.221 164.248C367.317 164.408 367.491 164.526 367.743 164.602C367.995 164.682 368.357 164.722 368.829 164.722C369.293 164.722 369.671 164.682 369.963 164.602C370.259 164.526 370.477 164.41 370.617 164.254C370.761 164.102 370.833 163.912 370.833 163.684C370.833 163.384 370.697 163.158 370.425 163.006C370.153 162.854 369.813 162.778 369.405 162.778H368.277C367.733 162.778 367.331 162.658 367.071 162.418C366.815 162.178 366.687 161.902 366.687 161.59C366.687 161.386 366.745 161.188 366.861 160.996C366.981 160.804 367.155 160.634 367.383 160.486C367.019 160.294 366.751 160.056 366.579 159.772C366.407 159.488 366.321 159.144 366.321 158.74C366.321 158.312 366.427 157.934 366.639 157.606C366.851 157.274 367.147 157.014 367.527 156.826C367.907 156.638 368.345 156.544 368.841 156.544C369.373 156.54 369.805 156.518 370.137 156.478C370.469 156.434 370.753 156.372 370.989 156.292C371.229 156.212 371.473 156.118 371.721 156.01ZM368.841 157.282C368.333 157.282 367.957 157.42 367.713 157.696C367.473 157.968 367.353 158.316 367.353 158.74C367.353 159.168 367.477 159.52 367.725 159.796C367.973 160.072 368.353 160.21 368.865 160.21C369.313 160.21 369.653 160.08 369.885 159.82C370.121 159.56 370.239 159.198 370.239 158.734C370.239 158.258 370.121 157.898 369.885 157.654C369.653 157.406 369.305 157.282 368.841 157.282ZM308.317 171.632V179H307.279V171.632H304.699V170.738H310.933L310.825 171.632H308.317ZM313.628 170.042V173.546C313.876 173.214 314.18 172.966 314.54 172.802C314.904 172.634 315.272 172.55 315.644 172.55C316.26 172.55 316.71 172.714 316.994 173.042C317.278 173.37 317.42 173.826 317.42 174.41V179H316.412V174.434C316.412 174.054 316.324 173.778 316.148 173.606C315.972 173.43 315.696 173.342 315.32 173.342C315.08 173.342 314.852 173.396 314.636 173.504C314.42 173.612 314.226 173.746 314.054 173.906C313.882 174.066 313.74 174.23 313.628 174.398V179H312.62V170.15L313.628 170.042ZM319.875 179V178.226H320.859V173.456H319.875V172.682H321.627L321.813 174.176C322.057 173.656 322.353 173.254 322.701 172.97C323.049 172.686 323.509 172.544 324.081 172.544C324.257 172.544 324.413 172.558 324.549 172.586C324.689 172.61 324.831 172.642 324.975 172.682L324.681 173.582C324.549 173.546 324.429 173.52 324.321 173.504C324.213 173.484 324.089 173.474 323.949 173.474C323.465 173.474 323.049 173.646 322.701 173.99C322.353 174.334 322.075 174.854 321.867 175.55V178.226H323.151V179H319.875ZM324.003 174.818V173.444L324.105 172.682H324.975L324.831 174.818H324.003ZM327.803 176.198C327.823 176.686 327.917 177.086 328.085 177.398C328.253 177.706 328.475 177.934 328.751 178.082C329.027 178.226 329.327 178.298 329.651 178.298C329.975 178.298 330.267 178.25 330.527 178.154C330.791 178.058 331.061 177.916 331.337 177.728L331.811 178.394C331.515 178.626 331.177 178.808 330.797 178.94C330.421 179.072 330.035 179.138 329.639 179.138C329.027 179.138 328.505 179 328.073 178.724C327.641 178.448 327.311 178.064 327.083 177.572C326.859 177.076 326.747 176.502 326.747 175.85C326.747 175.21 326.861 174.642 327.089 174.146C327.317 173.65 327.637 173.26 328.049 172.976C328.461 172.692 328.947 172.55 329.507 172.55C330.039 172.55 330.497 172.676 330.881 172.928C331.265 173.176 331.559 173.532 331.763 173.996C331.971 174.456 332.075 175.006 332.075 175.646C332.075 175.754 332.073 175.856 332.069 175.952C332.065 176.044 332.059 176.126 332.051 176.198H327.803ZM329.519 173.378C329.051 173.378 328.659 173.544 328.343 173.876C328.031 174.208 327.853 174.722 327.809 175.418H331.103C331.091 174.742 330.943 174.234 330.659 173.894C330.375 173.55 329.995 173.378 329.519 173.378ZM334.998 176.198C335.018 176.686 335.112 177.086 335.28 177.398C335.448 177.706 335.67 177.934 335.946 178.082C336.222 178.226 336.522 178.298 336.846 178.298C337.17 178.298 337.462 178.25 337.722 178.154C337.986 178.058 338.256 177.916 338.532 177.728L339.006 178.394C338.71 178.626 338.372 178.808 337.992 178.94C337.616 179.072 337.23 179.138 336.834 179.138C336.222 179.138 335.7 179 335.268 178.724C334.836 178.448 334.506 178.064 334.278 177.572C334.054 177.076 333.942 176.502 333.942 175.85C333.942 175.21 334.056 174.642 334.284 174.146C334.512 173.65 334.832 173.26 335.244 172.976C335.656 172.692 336.142 172.55 336.702 172.55C337.234 172.55 337.692 172.676 338.076 172.928C338.46 173.176 338.754 173.532 338.958 173.996C339.166 174.456 339.27 175.006 339.27 175.646C339.27 175.754 339.268 175.856 339.264 175.952C339.26 176.044 339.254 176.126 339.246 176.198H334.998ZM336.714 173.378C336.246 173.378 335.854 173.544 335.538 173.876C335.226 174.208 335.048 174.722 335.004 175.418H338.298C338.286 174.742 338.138 174.234 337.854 173.894C337.57 173.55 337.19 173.378 336.714 173.378ZM342.733 178.076C342.733 177.88 342.779 177.704 342.871 177.548C342.963 177.388 343.087 177.262 343.243 177.17C343.403 177.074 343.583 177.026 343.783 177.026C343.987 177.026 344.169 177.074 344.329 177.17C344.489 177.262 344.615 177.388 344.707 177.548C344.799 177.704 344.845 177.88 344.845 178.076C344.845 178.272 344.799 178.452 344.707 178.616C344.615 178.776 344.489 178.904 344.329 179C344.169 179.092 343.987 179.138 343.783 179.138C343.583 179.138 343.403 179.092 343.243 179C343.087 178.904 342.963 178.776 342.871 178.616C342.779 178.452 342.733 178.272 342.733 178.076ZM352.731 172.682V177.986C352.731 178.69 352.573 179.278 352.257 179.75C351.941 180.226 351.483 180.608 350.883 180.896C350.283 181.184 349.557 181.4 348.705 181.544L348.537 180.764C349.161 180.66 349.713 180.504 350.193 180.296C350.673 180.088 351.047 179.802 351.315 179.438C351.587 179.078 351.723 178.616 351.723 178.052V173.48H349.095V172.682H352.731ZM351.789 169.724C352.013 169.724 352.193 169.792 352.329 169.928C352.465 170.064 352.533 170.23 352.533 170.426C352.533 170.63 352.465 170.802 352.329 170.942C352.193 171.078 352.013 171.146 351.789 171.146C351.573 171.146 351.399 171.078 351.267 170.942C351.135 170.802 351.069 170.63 351.069 170.426C351.069 170.23 351.135 170.064 351.267 169.928C351.399 169.792 351.573 169.724 351.789 169.724ZM357.94 178.304C358.424 178.304 358.806 178.214 359.086 178.034C359.37 177.85 359.512 177.606 359.512 177.302C359.512 177.11 359.476 176.944 359.404 176.804C359.336 176.664 359.194 176.538 358.978 176.426C358.762 176.314 358.43 176.202 357.982 176.09C357.546 175.982 357.166 175.858 356.842 175.718C356.522 175.574 356.272 175.388 356.092 175.16C355.916 174.932 355.828 174.636 355.828 174.272C355.828 173.916 355.928 173.61 356.128 173.354C356.332 173.094 356.614 172.896 356.974 172.76C357.334 172.62 357.752 172.55 358.228 172.55C358.736 172.55 359.178 172.618 359.554 172.754C359.934 172.886 360.256 173.05 360.52 173.246L360.076 173.93C359.836 173.766 359.572 173.632 359.284 173.528C358.996 173.42 358.648 173.366 358.24 173.366C357.744 173.366 357.392 173.444 357.184 173.6C356.976 173.752 356.872 173.95 356.872 174.194C356.872 174.378 356.922 174.532 357.022 174.656C357.126 174.776 357.3 174.886 357.544 174.986C357.788 175.082 358.124 175.188 358.552 175.304C358.964 175.412 359.322 175.542 359.626 175.694C359.934 175.846 360.174 176.046 360.346 176.294C360.518 176.542 360.604 176.862 360.604 177.254C360.604 177.702 360.476 178.066 360.22 178.346C359.964 178.622 359.632 178.824 359.224 178.952C358.82 179.076 358.392 179.138 357.94 179.138C357.368 179.138 356.88 179.056 356.476 178.892C356.076 178.724 355.74 178.522 355.468 178.286L356.044 177.62C356.292 177.824 356.576 177.99 356.896 178.118C357.22 178.242 357.568 178.304 357.94 178.304Z" fill="black"/>
<path d="M119.47 134.47C119.177 134.763 119.177 135.237 119.47 135.53L124.243 140.303C124.536 140.596 125.01 140.596 125.303 140.303C125.596 140.01 125.596 139.536 125.303 139.243L121.061 135L125.303 130.757C125.596 130.464 125.596 129.99 125.303 129.697C125.01 129.404 124.536 129.404 124.243 129.697L119.47 134.47ZM272.53 135.53C272.823 135.237 272.823 134.763 272.53 134.47L267.757 129.697C267.464 129.404 266.99 129.404 266.697 129.697C266.404 129.99 266.404 130.464 266.697 130.757L270.939 135L266.697 139.243C266.404 139.536 266.404 140.01 266.697 140.303C266.99 140.596 267.464 140.596 267.757 140.303L272.53 135.53ZM120 135V135.75H272V135V134.25H120V135Z" fill="#5E5E5E"/>
<path d="M167.562 116.361L166.092 126H164.496L163.39 118.727L162.277 126H160.646L159.288 116.361H160.506L161.535 124.663L162.69 117.481H164.181L165.28 124.663L166.435 116.361H167.562ZM169.95 122.731C169.973 123.3 170.083 123.767 170.279 124.131C170.475 124.49 170.734 124.756 171.056 124.929C171.378 125.097 171.728 125.181 172.106 125.181C172.484 125.181 172.825 125.125 173.128 125.013C173.436 124.901 173.751 124.735 174.073 124.516L174.626 125.293C174.281 125.564 173.886 125.776 173.443 125.93C173.004 126.084 172.554 126.161 172.092 126.161C171.378 126.161 170.769 126 170.265 125.678C169.761 125.356 169.376 124.908 169.11 124.334C168.849 123.755 168.718 123.086 168.718 122.325C168.718 121.578 168.851 120.916 169.117 120.337C169.383 119.758 169.756 119.303 170.237 118.972C170.718 118.641 171.285 118.475 171.938 118.475C172.559 118.475 173.093 118.622 173.541 118.916C173.989 119.205 174.332 119.621 174.57 120.162C174.813 120.699 174.934 121.34 174.934 122.087C174.934 122.213 174.932 122.332 174.927 122.444C174.922 122.551 174.915 122.647 174.906 122.731H169.95ZM171.952 119.441C171.406 119.441 170.949 119.635 170.58 120.022C170.216 120.409 170.008 121.009 169.957 121.821H173.8C173.786 121.032 173.613 120.44 173.282 120.043C172.951 119.642 172.507 119.441 171.952 119.441ZM178.597 119.588C178.867 119.233 179.178 118.96 179.528 118.769C179.882 118.573 180.272 118.475 180.697 118.475C181.355 118.475 181.887 118.634 182.293 118.951C182.699 119.268 182.995 119.716 183.182 120.295C183.368 120.869 183.462 121.541 183.462 122.311C183.462 123.053 183.35 123.716 183.126 124.299C182.902 124.878 182.573 125.333 182.139 125.664C181.709 125.995 181.177 126.161 180.543 126.161C179.689 126.161 179.019 125.853 178.534 125.237L178.45 126H177.421V115.661L178.597 115.514V119.588ZM180.263 125.209C180.879 125.209 181.352 124.971 181.684 124.495C182.015 124.019 182.181 123.289 182.181 122.304C182.181 121.66 182.115 121.126 181.985 120.701C181.854 120.272 181.658 119.952 181.397 119.742C181.14 119.527 180.823 119.42 180.445 119.42C180.034 119.42 179.672 119.544 179.36 119.791C179.052 120.034 178.797 120.304 178.597 120.603V124.257C178.788 124.546 179.028 124.777 179.318 124.95C179.612 125.123 179.927 125.209 180.263 125.209ZM191.919 123.333C191.919 123.884 191.782 124.374 191.506 124.803C191.231 125.228 190.832 125.561 190.309 125.804C189.787 126.042 189.15 126.161 188.398 126.161C187.694 126.161 187.054 126.054 186.48 125.839C185.911 125.624 185.423 125.321 185.017 124.929L185.738 124.117C186.074 124.43 186.459 124.679 186.893 124.866C187.327 125.048 187.836 125.139 188.419 125.139C188.811 125.139 189.178 125.076 189.518 124.95C189.859 124.819 190.134 124.623 190.344 124.362C190.554 124.096 190.659 123.76 190.659 123.354C190.659 123.041 190.599 122.775 190.477 122.556C190.356 122.337 190.141 122.143 189.833 121.975C189.525 121.802 189.096 121.634 188.545 121.471C187.911 121.284 187.36 121.074 186.893 120.841C186.431 120.603 186.072 120.311 185.815 119.966C185.563 119.621 185.437 119.194 185.437 118.685C185.437 118.204 185.57 117.777 185.836 117.404C186.102 117.031 186.469 116.739 186.935 116.529C187.407 116.314 187.948 116.207 188.559 116.207C189.227 116.207 189.805 116.303 190.295 116.494C190.79 116.681 191.238 116.951 191.639 117.306L190.925 118.097C190.58 117.789 190.209 117.567 189.812 117.432C189.416 117.292 189.012 117.222 188.601 117.222C188.251 117.222 187.929 117.276 187.635 117.383C187.346 117.486 187.113 117.642 186.935 117.852C186.763 118.057 186.676 118.321 186.676 118.643C186.676 118.918 186.751 119.156 186.9 119.357C187.05 119.558 187.302 119.742 187.656 119.91C188.011 120.073 188.494 120.246 189.105 120.428C189.605 120.573 190.067 120.755 190.491 120.974C190.921 121.189 191.266 121.483 191.527 121.856C191.789 122.225 191.919 122.717 191.919 123.333ZM197.017 118.475C197.712 118.475 198.293 118.634 198.76 118.951C199.231 119.264 199.583 119.707 199.817 120.281C200.055 120.855 200.174 121.532 200.174 122.311C200.174 123.062 200.052 123.727 199.81 124.306C199.567 124.885 199.21 125.34 198.739 125.671C198.272 125.998 197.693 126.161 197.003 126.161C196.312 126.161 195.731 126.002 195.26 125.685C194.788 125.368 194.431 124.922 194.189 124.348C193.951 123.769 193.832 123.095 193.832 122.325C193.832 121.564 193.953 120.895 194.196 120.316C194.438 119.737 194.795 119.287 195.267 118.965C195.743 118.638 196.326 118.475 197.017 118.475ZM197.017 119.434C196.382 119.434 195.901 119.67 195.575 120.141C195.253 120.608 195.092 121.336 195.092 122.325C195.092 123.296 195.25 124.017 195.568 124.488C195.89 124.959 196.368 125.195 197.003 125.195C197.637 125.195 198.113 124.959 198.431 124.488C198.753 124.017 198.914 123.291 198.914 122.311C198.914 121.331 198.755 120.608 198.438 120.141C198.12 119.67 197.647 119.434 197.017 119.434ZM205.936 125.146C206.305 125.146 206.648 125.085 206.965 124.964C207.287 124.843 207.584 124.689 207.854 124.502L208.428 125.272C208.106 125.547 207.719 125.764 207.266 125.923C206.814 126.082 206.37 126.161 205.936 126.161C205.204 126.161 204.578 126.005 204.06 125.692C203.547 125.375 203.155 124.931 202.884 124.362C202.614 123.788 202.478 123.116 202.478 122.346C202.478 121.609 202.614 120.948 202.884 120.365C203.16 119.777 203.554 119.315 204.067 118.979C204.585 118.643 205.213 118.475 205.95 118.475C206.422 118.475 206.863 118.547 207.273 118.692C207.689 118.832 208.069 119.044 208.414 119.329L207.84 120.113C207.528 119.894 207.213 119.73 206.895 119.623C206.583 119.511 206.263 119.455 205.936 119.455C205.302 119.455 204.779 119.693 204.368 120.169C203.958 120.645 203.752 121.371 203.752 122.346C203.752 122.999 203.846 123.534 204.032 123.949C204.224 124.36 204.483 124.663 204.809 124.859C205.141 125.05 205.516 125.146 205.936 125.146ZM217.173 118.629L213.855 121.947L217.558 126H216.011L212.385 121.975L215.647 118.629H217.173ZM212.252 115.514V126H211.076V115.661L212.252 115.514ZM220.317 122.731C220.341 123.3 220.45 123.767 220.646 124.131C220.842 124.49 221.101 124.756 221.423 124.929C221.745 125.097 222.095 125.181 222.473 125.181C222.851 125.181 223.192 125.125 223.495 125.013C223.803 124.901 224.118 124.735 224.44 124.516L224.993 125.293C224.648 125.564 224.254 125.776 223.81 125.93C223.372 126.084 222.921 126.161 222.459 126.161C221.745 126.161 221.136 126 220.632 125.678C220.128 125.356 219.743 124.908 219.477 124.334C219.216 123.755 219.085 123.086 219.085 122.325C219.085 121.578 219.218 120.916 219.484 120.337C219.75 119.758 220.124 119.303 220.604 118.972C221.085 118.641 221.652 118.475 222.305 118.475C222.926 118.475 223.46 118.622 223.908 118.916C224.356 119.205 224.699 119.621 224.937 120.162C225.18 120.699 225.301 121.34 225.301 122.087C225.301 122.213 225.299 122.332 225.294 122.444C225.29 122.551 225.283 122.647 225.273 122.731H220.317ZM222.319 119.441C221.773 119.441 221.316 119.635 220.947 120.022C220.583 120.409 220.376 121.009 220.324 121.821H224.167C224.153 121.032 223.981 120.44 223.649 120.043C223.318 119.642 222.875 119.441 222.319 119.441ZM233.64 125.629C233.388 125.797 233.082 125.928 232.723 126.021C232.364 126.114 232.011 126.161 231.666 126.161C230.873 126.161 230.261 125.953 229.832 125.538C229.403 125.123 229.188 124.588 229.188 123.935V119.539H227.494V118.629H229.188V116.956L230.364 116.816V118.629H232.912L232.772 119.539H230.364V123.921C230.364 124.332 230.471 124.644 230.686 124.859C230.905 125.074 231.267 125.181 231.771 125.181C232.046 125.181 232.301 125.148 232.534 125.083C232.767 125.018 232.984 124.934 233.185 124.831L233.64 125.629Z" fill="black"/>
<path d="M77.042 7.87V20H75.062V7.87H70.822V6.22H81.352L81.142 7.87H77.042ZM85.9042 5.03V10.83C86.3242 10.29 86.8276 9.88667 87.4142 9.62C88.0076 9.34667 88.6109 9.21 89.2242 9.21C90.2376 9.21 90.9842 9.48667 91.4642 10.04C91.9442 10.5867 92.1842 11.35 92.1842 12.33V20H90.2642V12.5C90.2642 11.8667 90.1276 11.41 89.8542 11.13C89.5876 10.8433 89.1609 10.7 88.5742 10.7C88.2009 10.7 87.8442 10.7833 87.5042 10.95C87.1709 11.1167 86.8676 11.33 86.5942 11.59C86.3209 11.8433 86.0909 12.1067 85.9042 12.38V20H83.9842V5.24L85.9042 5.03ZM97.5264 15.38C97.5664 16.1533 97.7231 16.7867 97.9964 17.28C98.2697 17.7667 98.6264 18.1267 99.0664 18.36C99.5064 18.5867 99.9931 18.7 100.526 18.7C101.053 18.7 101.536 18.62 101.976 18.46C102.416 18.3 102.863 18.0667 103.316 17.76L104.186 18.97C103.693 19.3633 103.123 19.6767 102.476 19.91C101.83 20.1367 101.16 20.25 100.466 20.25C99.4131 20.25 98.5164 20.02 97.7764 19.56C97.0431 19.0933 96.4831 18.4467 96.0964 17.62C95.7164 16.7933 95.5264 15.8333 95.5264 14.74C95.5264 13.68 95.7164 12.7333 96.0964 11.9C96.4831 11.0667 97.0264 10.41 97.7264 9.93C98.4264 9.45 99.2597 9.21 100.226 9.21C101.133 9.21 101.913 9.42 102.566 9.84C103.226 10.26 103.733 10.86 104.086 11.64C104.44 12.4133 104.616 13.34 104.616 14.42C104.616 14.6 104.613 14.7733 104.606 14.94C104.6 15.1067 104.59 15.2533 104.576 15.38H97.5264ZM100.246 10.71C99.4997 10.71 98.8764 10.9767 98.3764 11.51C97.8831 12.0433 97.5997 12.8667 97.5264 13.98H102.766C102.746 12.9133 102.513 12.1033 102.066 11.55C101.626 10.99 101.02 10.71 100.246 10.71ZM124.091 17.93L127.631 6.22H129.641L125.131 20H122.971L118.461 6.22H120.591L124.091 17.93ZM133.873 9.46V16.88C133.873 17.5467 134.01 18.0267 134.283 18.32C134.556 18.6067 134.973 18.75 135.533 18.75C136.073 18.75 136.586 18.5933 137.073 18.28C137.56 17.9667 137.94 17.5933 138.213 17.16V9.46H140.133V20H138.483L138.343 18.61C137.943 19.1367 137.44 19.5433 136.833 19.83C136.226 20.11 135.613 20.25 134.993 20.25C133.973 20.25 133.21 19.9733 132.703 19.42C132.203 18.8667 131.953 18.1 131.953 17.12V9.46H133.873ZM145.495 15.38C145.535 16.1533 145.692 16.7867 145.965 17.28C146.238 17.7667 146.595 18.1267 147.035 18.36C147.475 18.5867 147.962 18.7 148.495 18.7C149.022 18.7 149.505 18.62 149.945 18.46C150.385 18.3 150.832 18.0667 151.285 17.76L152.155 18.97C151.662 19.3633 151.092 19.6767 150.445 19.91C149.798 20.1367 149.128 20.25 148.435 20.25C147.382 20.25 146.485 20.02 145.745 19.56C145.012 19.0933 144.452 18.4467 144.065 17.62C143.685 16.7933 143.495 15.8333 143.495 14.74C143.495 13.68 143.685 12.7333 144.065 11.9C144.452 11.0667 144.995 10.41 145.695 9.93C146.395 9.45 147.228 9.21 148.195 9.21C149.102 9.21 149.882 9.42 150.535 9.84C151.195 10.26 151.702 10.86 152.055 11.64C152.408 12.4133 152.585 13.34 152.585 14.42C152.585 14.6 152.582 14.7733 152.575 14.94C152.568 15.1067 152.558 15.2533 152.545 15.38H145.495ZM148.215 10.71C147.468 10.71 146.845 10.9767 146.345 11.51C145.852 12.0433 145.568 12.8667 145.495 13.98H150.735C150.715 12.9133 150.482 12.1033 150.035 11.55C149.595 10.99 148.988 10.71 148.215 10.71ZM156.037 20V18.58H157.637V10.88H156.037V9.46H159.107L159.457 11.93C159.857 11.0567 160.347 10.3867 160.927 9.92C161.514 9.44667 162.274 9.21 163.207 9.21C163.514 9.21 163.784 9.23333 164.017 9.28C164.257 9.32667 164.501 9.38667 164.747 9.46L164.177 11.14C163.957 11.0733 163.757 11.0267 163.577 11C163.397 10.9733 163.191 10.96 162.957 10.96C162.164 10.96 161.484 11.2467 160.917 11.82C160.351 12.3933 159.897 13.2367 159.557 14.35V18.58H161.697V20H156.037ZM162.967 13.16V10.74L163.187 9.46H164.747L164.447 13.16H162.967ZM186.572 16.57H181.352L180.312 20H178.322L182.762 6.22H185.262L189.712 20H187.612L186.572 16.57ZM181.812 14.98H186.112L183.972 7.82L181.812 14.98ZM192.014 20V18.58H193.614V10.88H192.014V9.46H195.084L195.434 11.93C195.834 11.0567 196.324 10.3867 196.904 9.92C197.491 9.44667 198.251 9.21 199.184 9.21C199.491 9.21 199.761 9.23333 199.994 9.28C200.234 9.32667 200.477 9.38667 200.724 9.46L200.154 11.14C199.934 11.0733 199.734 11.0267 199.554 11C199.374 10.9733 199.167 10.96 198.934 10.96C198.141 10.96 197.461 11.2467 196.894 11.82C196.327 12.3933 195.874 13.2367 195.534 14.35V18.58H197.674V20H192.014ZM198.944 13.16V10.74L199.164 9.46H200.724L200.424 13.16H198.944ZM208.806 18.63C209.319 18.63 209.796 18.5433 210.236 18.37C210.683 18.1967 211.099 17.9767 211.486 17.71L212.406 18.96C211.946 19.3533 211.389 19.6667 210.736 19.9C210.083 20.1333 209.429 20.25 208.776 20.25C207.716 20.25 206.809 20.0233 206.056 19.57C205.309 19.1167 204.739 18.48 204.346 17.66C203.953 16.84 203.756 15.88 203.756 14.78C203.756 13.7133 203.953 12.76 204.346 11.92C204.746 11.08 205.323 10.42 206.076 9.94C206.829 9.45333 207.739 9.21 208.806 9.21C209.499 9.21 210.143 9.31667 210.736 9.53C211.336 9.73667 211.886 10.0433 212.386 10.45L211.476 11.7C211.043 11.4 210.606 11.1733 210.166 11.02C209.726 10.86 209.276 10.78 208.816 10.78C207.936 10.78 207.216 11.1067 206.656 11.76C206.096 12.4133 205.816 13.42 205.816 14.78C205.816 15.6867 205.943 16.4233 206.196 16.99C206.456 17.5567 206.813 17.9733 207.266 18.24C207.719 18.5 208.233 18.63 208.806 18.63ZM217.818 5.03V10.83C218.238 10.29 218.742 9.88667 219.328 9.62C219.922 9.34667 220.525 9.21 221.138 9.21C222.152 9.21 222.898 9.48667 223.378 10.04C223.858 10.5867 224.098 11.35 224.098 12.33V20H222.178V12.5C222.178 11.8667 222.042 11.41 221.768 11.13C221.502 10.8433 221.075 10.7 220.488 10.7C220.115 10.7 219.758 10.7833 219.418 10.95C219.085 11.1167 218.782 11.33 218.508 11.59C218.235 11.8433 218.005 12.1067 217.818 12.38V20H215.898V5.24L217.818 5.03ZM233.41 9.46V18.54H236.34V20H228.28V18.54H231.49V10.92H228.38V9.46H233.41ZM231.98 4.42C232.38 4.42 232.7 4.54333 232.94 4.79C233.187 5.03667 233.31 5.33667 233.31 5.69C233.31 6.05667 233.187 6.36667 232.94 6.62C232.7 6.86667 232.38 6.99 231.98 6.99C231.587 6.99 231.267 6.86667 231.02 6.62C230.78 6.36667 230.66 6.05667 230.66 5.69C230.66 5.33667 230.78 5.03667 231.02 4.79C231.267 4.54333 231.587 4.42 231.98 4.42ZM248.443 19.46C248.069 19.7 247.619 19.89 247.093 20.03C246.566 20.1767 246.039 20.25 245.513 20.25C244.339 20.25 243.439 19.9433 242.813 19.33C242.193 18.7167 241.883 17.92 241.883 16.94V10.9H239.493V9.46H241.883V7.08L243.803 6.85V9.46H247.403L247.183 10.9H243.803V16.92C243.803 17.5 243.949 17.9367 244.243 18.23C244.543 18.5233 245.039 18.67 245.733 18.67C246.126 18.67 246.486 18.6233 246.813 18.53C247.139 18.4367 247.443 18.3167 247.723 18.17L248.443 19.46ZM253.425 15.38C253.465 16.1533 253.622 16.7867 253.895 17.28C254.168 17.7667 254.525 18.1267 254.965 18.36C255.405 18.5867 255.892 18.7 256.425 18.7C256.952 18.7 257.435 18.62 257.875 18.46C258.315 18.3 258.762 18.0667 259.215 17.76L260.085 18.97C259.592 19.3633 259.022 19.6767 258.375 19.91C257.728 20.1367 257.058 20.25 256.365 20.25C255.312 20.25 254.415 20.02 253.675 19.56C252.942 19.0933 252.382 18.4467 251.995 17.62C251.615 16.7933 251.425 15.8333 251.425 14.74C251.425 13.68 251.615 12.7333 251.995 11.9C252.382 11.0667 252.925 10.41 253.625 9.93C254.325 9.45 255.158 9.21 256.125 9.21C257.032 9.21 257.812 9.42 258.465 9.84C259.125 10.26 259.632 10.86 259.985 11.64C260.338 12.4133 260.515 13.34 260.515 14.42C260.515 14.6 260.512 14.7733 260.505 14.94C260.498 15.1067 260.488 15.2533 260.475 15.38H253.425ZM256.145 10.71C255.398 10.71 254.775 10.9767 254.275 11.51C253.782 12.0433 253.498 12.8667 253.425 13.98H258.665C258.645 12.9133 258.412 12.1033 257.965 11.55C257.525 10.99 256.918 10.71 256.145 10.71ZM268.767 18.63C269.28 18.63 269.757 18.5433 270.197 18.37C270.644 18.1967 271.06 17.9767 271.447 17.71L272.367 18.96C271.907 19.3533 271.35 19.6667 270.697 19.9C270.044 20.1333 269.39 20.25 268.737 20.25C267.677 20.25 266.77 20.0233 266.017 19.57C265.27 19.1167 264.7 18.48 264.307 17.66C263.914 16.84 263.717 15.88 263.717 14.78C263.717 13.7133 263.914 12.76 264.307 11.92C264.707 11.08 265.284 10.42 266.037 9.94C266.79 9.45333 267.7 9.21 268.767 9.21C269.46 9.21 270.104 9.31667 270.697 9.53C271.297 9.73667 271.847 10.0433 272.347 10.45L271.437 11.7C271.004 11.4 270.567 11.1733 270.127 11.02C269.687 10.86 269.237 10.78 268.777 10.78C267.897 10.78 267.177 11.1067 266.617 11.76C266.057 12.4133 265.777 13.42 265.777 14.78C265.777 15.6867 265.904 16.4233 266.157 16.99C266.417 17.5567 266.774 17.9733 267.227 18.24C267.68 18.5 268.194 18.63 268.767 18.63ZM284.419 19.46C284.046 19.7 283.596 19.89 283.069 20.03C282.543 20.1767 282.016 20.25 281.489 20.25C280.316 20.25 279.416 19.9433 278.789 19.33C278.169 18.7167 277.859 17.92 277.859 16.94V10.9H275.469V9.46H277.859V7.08L279.779 6.85V9.46H283.379L283.159 10.9H279.779V16.92C279.779 17.5 279.926 17.9367 280.219 18.23C280.519 18.5233 281.016 18.67 281.709 18.67C282.103 18.67 282.463 18.6233 282.789 18.53C283.116 18.4367 283.419 18.3167 283.699 18.17L284.419 19.46ZM289.771 9.46V16.88C289.771 17.5467 289.908 18.0267 290.181 18.32C290.455 18.6067 290.871 18.75 291.431 18.75C291.971 18.75 292.485 18.5933 292.971 18.28C293.458 17.9667 293.838 17.5933 294.111 17.16V9.46H296.031V20H294.381L294.241 18.61C293.841 19.1367 293.338 19.5433 292.731 19.83C292.125 20.11 291.511 20.25 290.891 20.25C289.871 20.25 289.108 19.9733 288.601 19.42C288.101 18.8667 287.851 18.1 287.851 17.12V9.46H289.771ZM299.944 20V18.58H301.544V10.88H299.944V9.46H303.014L303.364 11.93C303.764 11.0567 304.254 10.3867 304.834 9.92C305.42 9.44667 306.18 9.21 307.114 9.21C307.42 9.21 307.69 9.23333 307.924 9.28C308.164 9.32667 308.407 9.38667 308.654 9.46L308.084 11.14C307.864 11.0733 307.664 11.0267 307.484 11C307.304 10.9733 307.097 10.96 306.864 10.96C306.07 10.96 305.39 11.2467 304.824 11.82C304.257 12.3933 303.804 13.2367 303.464 14.35V18.58H305.604V20H299.944ZM306.874 13.16V10.74L307.094 9.46H308.654L308.354 13.16H306.874ZM313.386 15.38C313.426 16.1533 313.582 16.7867 313.856 17.28C314.129 17.7667 314.486 18.1267 314.926 18.36C315.366 18.5867 315.852 18.7 316.386 18.7C316.912 18.7 317.396 18.62 317.836 18.46C318.276 18.3 318.722 18.0667 319.176 17.76L320.046 18.97C319.552 19.3633 318.982 19.6767 318.336 19.91C317.689 20.1367 317.019 20.25 316.326 20.25C315.272 20.25 314.376 20.02 313.636 19.56C312.902 19.0933 312.342 18.4467 311.956 17.62C311.576 16.7933 311.386 15.8333 311.386 14.74C311.386 13.68 311.576 12.7333 311.956 11.9C312.342 11.0667 312.886 10.41 313.586 9.93C314.286 9.45 315.119 9.21 316.086 9.21C316.992 9.21 317.772 9.42 318.426 9.84C319.086 10.26 319.592 10.86 319.946 11.64C320.299 12.4133 320.476 13.34 320.476 14.42C320.476 14.6 320.472 14.7733 320.466 14.94C320.459 15.1067 320.449 15.2533 320.436 15.38H313.386ZM316.106 10.71C315.359 10.71 314.736 10.9767 314.236 11.51C313.742 12.0433 313.459 12.8667 313.386 13.98H318.626C318.606 12.9133 318.372 12.1033 317.926 11.55C317.486 10.99 316.879 10.71 316.106 10.71Z" fill="black"/>
</svg>
